# xmcd
#
# Track frame offsets:
#	150
#	32579
#	73632
#	123611
#	156450
#	194222
#	272261
#	292440
#
# Disc length: 4468 seconds
#
# Revision: 1
# Processed by: cddbd v1.5.1PL0 Copyright (c) Steve Scherf et al.
# Submitted via: audiograbber 1.83.01
#
DISCID=83117208
DTITLE=Jay Gordon - No Quarter Given  Live On  The Sunset Strip
DYEAR=2005
DGENRE=Electric Blues
TTITLE0=Big Boss Man
TTITLE1=Hoochie Coochie Man
TTITLE2=Leave My Girl Alone
TTITLE3=Voodoo Boogie/Dust My Broom
TTITLE4=Black Top Alley
TTITLE5=Sky is Cryin
TTITLE6=Message to Collins
TTITLE7=The Original Sin
EXTD=
EXTT0=
EXTT1=
EXTT2=
EXTT3=
EXTT4=
EXTT5=
EXTT6=
EXTT7=
PLAYORDER=
